<svg xmlns="http://www.w3.org/2000/svg" viewBox="0 0 129 185">
  <path d="M40 35c5 2 16 0 20 4l-5 8c-1 2-3 5-3 8l1 4c1 5 2 8 6 9h7c-2 2-5 4-6 7l2 9c-4-1-5-5-8-7l-4-6-4-4V50l-2-3c-1 2 1 3 1 5-2 0-3-3-3-4l-3-5-2-3-4-6h-1l-1-2-4 2 8 8 3 6 4 4c2 5 1 11 3 17 1 4 5 9 7 11l11 9-2 10c-5 2-9-3-15-2-3-2-12-3-15-1a82 82 0 00-9 26c-3 2-7 4-9 7l-1 2a22 22 0 00-12 12h4v-4c3-2 6-3 8-6l10-8 2-2h2l7-26c1 2 3 2 5 2l7 3h8l6 2v3c3 0 3-4 7-5 0 4-4 3-4 7a4 4 0 01-2 0c-9 6-22 8-29 15l-2 11v18l-4 8-2 3-2 5a27 27 0 00-4 11l3 2v-3l5-11 5-12 3-4v-17-8c0-2 8-4 12-5 5-2 10-4 12-8h6c1 2-1 3-2 5-8 2-12 5-14 12s-2 18 1 25l3 6a52 52 0 0014 16c4 0 5-3 9-4 3-4 7-7 10-14l4-9c2-10 1-22-5-28-3-1-5-3-9-3l-1-6c3-1 5 1 7 3l6 5 14 7-1 17c-1 4-3 8-1 12l5 6 4 6c2 5 1 12 6 15 1-2 0-2-1-3-1-6-2-13-6-16l1-1c-2-4-6-5-6-9-1-3 1-7 2-11 0-6 1-14-2-18s-8-7-13-11l-8-4c-2-1-3-3-6-3l-1-4-3-2c3-1 5 4 8 5l-1-4h2c2-3 5 0 8-1 6 0 11-5 14 0 0 4 3 7 4 10s0 8 2 11l16 13c1 2 3 4 5 3l-10-11-4-2-5-5v-11c-1-3-4-12-6-14-8-3-19 3-28 2 0-4-1-9 1-12 8-2 13-7 16-15l2-4c2-5 2-10 2-17l9-8 4-5c2-1 5-2 5-6-2-1-3 2-4 3l-3 3-3 3-3 2-3 2c-1 2-2 4-4 4-1-2 2-4 1-5l-3 4 1 3c1 6-2 12-2 18-5 4-8 11-13 15l-1-11c-1-2-5-2-6-5 7 2 13 0 14-6l-1-3 1-6a27 27 0 00-7-12c5-6 21 1 23-7 1-8 4-13 7-19 1-3 4-6 4-10-2-1-4 1-5 3l-7 18-2 9c-7-1-16 1-22 4l-2-6c-3-2-5-5-9-1l-1 4c-3 1-5 0-8-1l-7-1-7-1c-1-5-2-13-5-18l-4-8c0-3-2-4-3-6-1-1-2 0-2 2l2 4c5 8 9 17 10 28" fill="currentColor"/>
</svg>
