<svg xmlns="http://www.w3.org/2000/svg" viewBox="0 0 129 185">
  <path d="M39.8 35.4c5.7 2.1 16.7 0 19.8 3.9-.7 2.3-3 4.5-4.2 7.4-1.1 2.6-3 5.8-3.2 8.3 0 1.2.7 2.8 1 4.3.7 4.3 1.5 7.8 5.8 8.5 2 .4 4.3-1 7 .3-1.6 2-4.6 3.5-5.5 6.5-.8 3 .4 6 1.2 9-3.2-.8-5.1-4.8-8-6.8-.9-1.8-1.8-3.5-3.3-5.4-1.1-1.4-3.5-3-4-4.7-1.2-3.8.1-12.6-.5-16.6-.1-1-.6-2.5-1.8-2.7-1.4 1.5 1.2 3 1 5-2-.4-2.7-2.9-3.5-4.4-.8-1.6-2-3-2.9-4.5-.6-1-.9-2.3-1.6-3.3-1.4-2.2-3.4-3.6-4.5-6.3-.8-.4-.4.5-.9.6-.6-.3.2-2.1-.6-2.2-.6-.6-2.6 1.1-3.6 1.6 3 2 5 4.8 7.2 8 1.3 2 2 3.8 3.6 6.1 1 1.7 2.9 3 3.6 4.5 2.3 5 .7 11 2.7 17 1 3.2 5 8.1 7.4 10.5 3.6 3.3 7.6 5.9 10.8 9.4 0 3.7-.5 7.1-1.6 9.7-5.5 2.3-9.6-3.2-15.5-2-3-2.2-11.3-3-14.4-1a82.3 82.3 0 00-9.2 25.7c-3 2.6-6.7 4.5-9.5 7.2-.3.4-.6.8-.4 1.6A22.2 22.2 0 00.2 143c1.2.2 2-.9 3.4.2-.1-1 1.2-2 .7-4 3-1.7 5.8-3.5 7.4-6.6 4.6-1.2 7.2-4.4 10.1-7.4.7-.7 1.7-1 2-2 .2-.5 1.5 1.2 1.9 0 3-8.2 4.2-18.2 7.8-25.7 1 2 3 1.2 5 1.6 2.5.5 4.8 2.6 7 3 2.5.3 5-.8 7.4-.3 2.4.5 3.4 2.4 5.8 2.5.1 1-.6 2 .3 2.7 3.4-.4 3.3-4.4 6.7-4.7.2 3.3-3.5 2.9-3.4 6.3a4 4 0 01-2.4.4c-9.1 5.8-21.8 8-29 15.5-.4 3.8-1.6 7.2-1.9 11-.4 6 1.2 12.9-.2 17.8-.5 1.8-2.6 5.9-3.8 8-.5.7-1.4 1.4-1.8 2.2-1.2 2-1 4.2-2.3 5.8a27.4 27.4 0 00-3.8 10.4c1 .8 1.8 2 3.4 2.2.6-1.3-.7-1.7-.7-3.1 0-2.3 4-8.8 5.4-11.3 2.1-3.8 4.1-7.6 5.2-11.2.4-1.3 2.1-2.6 2.7-3.9 1.1-2.6 0-6-.2-8.3-.4-2.6-.2-6.2 0-9 .1-2.6-.6-6.3-.3-7.6.8-2.9 8.9-4.6 12-5.7 5.2-1.7 10.2-3.4 12.8-7.8 1.6 1.3 3.5-.2 5.8 0 .6 2.1-1.6 3.2-2 5.1-7.7 1.5-12.1 5-14.4 12.2-2.2 7-2 18 1 24.7.8 2 2.3 4.3 3.5 6.3a52 52 0 0013.5 15.8c3.9-.4 5.7-2.7 8.8-3.8 3.5-4.4 7.9-7.4 10.6-13.8 1.2-3 3.2-6.5 3.8-9.2 2.2-10.5.7-22-4.7-28.3-3.3-1-5.6-3-9.5-3.4.5-2.7-1-3.5-.9-5.9 3-.5 5.3 1.6 7.2 3.2 2 1.6 4 3.3 6 4.7 4.4 3 9.4 4.7 13.8 7.9.3 6.2-.2 11.6-1.1 16.9-.7 4-3 7.5-1 11.7 1.1 2 3.3 3.6 4.8 5.8 1.4 2.1 3 4.6 4 6.5 2.5 4.5 1.1 12 6.8 14.2.6-1.1-.6-1.7-.9-2.7-1.7-5.4-2.2-12.6-6.7-15.5 0-1 1-.7.9-1.8-1.5-3.3-5.5-4.9-5.9-9-.3-2.7 1.6-6.8 2-11 .5-5.5 1.2-13.7-1.5-17.4-3.7-4.3-8.1-7.5-13.5-10.8-2.6-1.5-5.6-2.6-8-4.2-1.7-1.3-3-3.2-6-3.6 0-1.4-.8-2-.9-3.4-.7-.8-2.1-.9-2.5-2 3.1-1 4.2 3.9 7.2 4.5.7-1.3-.2-2.8-.6-3.6 1-.3 1 .3 1.8.4 1.8-3 5-.9 8.7-1.1 5.2-.3 10.4-5.1 13.5-.5 0 4.3 2.7 7 3.6 10.2 1 3.3 0 8.3 2.3 10.8 5.5 4.1 10 9.3 16 13 .9 2.1 2.8 4 5.6 3.6-3.4-4-7.8-7-10.6-11.7-1.2-.3-2.6-1-3.8-1.8-1.8-1.2-4.5-3.5-5-5-1-3.3.3-7.5-.4-11-.7-3.2-3.3-12.2-6-13.5-8-3.5-18.4 3-27.3 1.8-.7-4.2-1.7-9.4.9-12.1 8-1.9 12.3-7.6 15.5-15 .6-1.6 1.7-2.8 2.3-4.1 2-4.8 2.1-10.5 2.4-16.7 1.6-3.6 6.2-5 9-7.9 1.5-1.4 2.4-3.5 4-5 2-1.6 5-2.6 5-6.2-2.7-1.7-3 1.5-4.5 3.1-.6.7-1.9 1.8-2.9 2.7-1 1-2 2-3 2.7-.8.7-2.3.9-2.8 2-.4.9-2 1.5-3.2 2.5-1.5 1.3-2 3.3-3.8 3.6-1.4-1.4 2-3.6.7-5-1 .8-2.4 2.5-2.5 4-.1 1.1.8 2.2.9 3.5.5 5.4-2.5 11.9-2 17.6-5.7 4-8.7 10.6-13.8 15.3 0-3.4.4-8.6-.9-11.5-1-2.1-4.3-2.2-5.4-4.3 6.4 1 12.3-.7 13.3-6.3.2-1-.3-2.3-.2-3.6 0-2 .8-3.8.2-6a27 27 0 00-6.3-11.8c5.2-5.4 20.7 1 23-6.7.7-7.7 3.4-13.4 6.3-19 1.6-3.1 4.2-6.3 4.2-10.3-2.2-.5-3.6 1.6-4.5 3-2.7 4.6-4.7 12.2-7 18.4-1 3-2 4.9-2 8.6-7.3-.4-16.4.8-21.8 3.8-1-1.7-1.2-4.2-2.5-5.6-2.7-2.3-5.2-4.5-8.5-1.2-1 1-1.7 3-1.8 4-2.2.9-4.8 0-8.1-.8-2.3-.6-4.5-.8-6.5-1.1-2.4-.5-4.5-1.2-7.5-1-.8-5.2-1.9-12.6-5-17.5-.3-3.5-1.2-6.5-3.3-8.3-.2-3-2.1-4.3-3.4-6.3-1.2-.9-2.3.4-2.2 2 0 1.2 1.8 3.2 2.7 4.7 4.5 7.5 8.3 17 9.4 28" fill="currentColor"/>
</svg>
